<svg width="67" height="45" viewBox="0 0 67 45" fill="none" xmlns="http://www.w3.org/2000/svg">
<path d="M9.44207 35.2183L16.396 30.7337L23.3499 35.2183V22.4337C24.3978 20.983 24.9588 19.2375 24.9527 17.448C24.9527 12.7219 21.1214 8.89062 16.3953 8.89062C11.6692 8.89062 7.83794 12.7219 7.83794 17.448C7.83176 19.2375 8.3928 20.983 9.44072 22.4337L9.44207 35.2183ZM21.2016 31.2792L16.396 28.1757L11.5917 31.2792V24.5335C14.4941 26.4953 18.2978 26.4953 21.2003 24.5335L21.2016 31.2792ZM16.396 11.0409C19.9345 11.0409 22.8031 13.9095 22.8031 17.448C22.8031 20.9865 19.9345 23.8551 16.396 23.8551C12.8575 23.8551 9.98887 20.9865 9.98887 17.448C9.9933 13.9112 12.8592 11.0453 16.396 11.0409Z" fill="#6f7f9e"/>
<path d="M54.0554 13.0488H37.5305V15.1984H54.0554V13.0488Z" fill="#6f7f9e"/>
<path d="M58.0859 20.5312H33.5V22.6808H58.0859V20.5312Z" fill="#6f7f9e"/>
<path d="M58.0859 28.0137H33.5V30.1633H58.0859V28.0137Z" fill="#6f7f9e"/>
<rect x="1" y="1" width="65" height="43" rx="2" stroke="#6f7f9e" stroke-width="2"/>
</svg>
