<svg width="28" height="31" viewBox="0 0 28 31" fill="none" xmlns="http://www.w3.org/2000/svg">
<path d="M9.88282 2.28477H9.84311L9.81422 2.312L1.7378 9.9265L1.7064 9.9561V9.99926V28.4986V28.5986H1.8064H24.2212H24.3212V28.4986V2.38477V2.28477H24.2212H9.88282ZM11.1426 11.1839L11.1434 4.16145H22.4806V26.722H3.54702V11.2847L11.0426 11.2839L11.1426 11.2838L11.1426 11.1839ZM4.87033 9.4078L9.30256 5.46957L9.30197 9.4074L4.87033 9.4078Z" fill="#6A5D5B" stroke="#6A5D5B" stroke-width="0.2"/>
<path d="M7.7396 17.3232H5.41943V22.7938H7.04424V21.4496H7.7396C9.08206 21.4496 9.93556 20.6527 9.93556 19.3866C9.93579 18.1205 9.08206 17.3232 7.7396 17.3232V17.3232ZM7.6364 20.0273H7.04424V18.7455H7.6364C8.08381 18.7455 8.29713 18.988 8.29713 19.3866C8.29713 19.7852 8.08381 20.0273 7.6364 20.0273Z" fill="#6A5D5B"/>
<path d="M10.8386 17.3232V22.7938H13.3652C15.0789 22.7938 16.258 21.7544 16.258 20.0585C16.258 18.3626 15.0789 17.3232 13.3652 17.3232H10.8386ZM14.515 20.0585C14.515 20.8948 14.017 21.3561 13.292 21.3561H12.5671V18.7613H13.292C14.017 18.7613 14.515 19.2225 14.515 20.0585Z" fill="#6A5D5B"/>
<path d="M18.6598 21.0434H20.5141V19.6523H18.6598V18.7143H20.7743V17.3232H17.1614V22.7938H18.6598V21.0434Z" fill="#6A5D5B"/>
</svg>
